<svg width="1217" height="152" viewBox="0 0 1217 152" fill="none" xmlns="http://www.w3.org/2000/svg">
  <circle cx="75" cy="77" r="75" fill="#66A9E9"/>
  <circle cx="1142" cy="75" r="75" fill="#66A9E9"/>
  <circle cx="431" cy="76" r="75" fill="#66A9E9"/>
  <circle cx="790" cy="77" r="75" fill="#66A9E9"/>
  <path d="M787.185 106.51C782.878 106.51 778.798 105.83 774.945 104.47C771.148 103.053 768.088 101.183 765.765 98.86L768.74 94.015C770.667 95.9983 773.245 97.6417 776.475 98.945C779.762 100.248 783.332 100.9 787.185 100.9C792.115 100.9 795.883 99.8233 798.49 97.67C801.153 95.5167 802.485 92.6267 802.485 89C802.485 85.3733 801.182 82.4833 798.575 80.33C796.025 78.1767 791.973 77.1 786.42 77.1H782.17V72.595L800.53 49.56L801.38 51.94H768.23V46.5H806.48V50.835L788.12 73.87L785.145 71.915H787.44C794.58 71.915 799.907 73.5017 803.42 76.675C806.99 79.8483 808.775 83.9283 808.775 88.915C808.775 92.2583 807.982 95.2617 806.395 97.925C804.808 100.588 802.4 102.685 799.17 104.215C795.997 105.745 792.002 106.51 787.185 106.51Z" fill="white"/>
  <path d="M357.776 77.7592C358.748 76.7781 358.74 75.1952 357.759 74.2237L341.772 58.3912C340.791 57.4196 339.208 57.4273 338.237 58.4084C337.265 59.3894 337.273 60.9723 338.254 61.9438L352.465 76.0172L338.391 90.2278C337.42 91.2088 337.427 92.7917 338.408 93.7633C339.389 94.7348 340.972 94.7271 341.944 93.7461L357.776 77.7592ZM150.012 79.5L356.012 78.5L355.988 73.5L149.988 74.5L150.012 79.5Z" fill="#66A9E9"/>
  <path d="M716.762 77.2762C717.743 76.3046 717.75 74.7217 716.779 73.7407L700.945 57.7549C699.973 56.7739 698.391 56.7663 697.41 57.738C696.429 58.7096 696.421 60.2925 697.393 61.2734L711.467 75.4831L697.257 89.5574C696.276 90.529 696.269 92.1119 697.24 93.0929C698.212 94.0739 699.795 94.0814 700.776 93.1098L716.762 77.2762ZM505.99 77L714.99 78L715.014 73L506.014 72L505.99 77Z" fill="#66A9E9"/>
  <path d="M1068.77 76.2678C1069.74 75.2915 1069.74 73.7085 1068.77 72.7322L1052.86 56.8223C1051.88 55.846 1050.3 55.846 1049.32 56.8223C1048.35 57.7986 1048.35 59.3816 1049.32 60.3579L1063.46 74.5L1049.32 88.6421C1048.35 89.6184 1048.35 91.2014 1049.32 92.1777C1050.3 93.154 1051.88 93.154 1052.86 92.1777L1068.77 76.2678ZM865 77H1067V72H865V77Z" fill="#66A9E9"/>
  <path d="M72.79 105V48.05L75.51 50.94H58.765V45.5H78.91V105H72.79Z" fill="white"/>
  <path d="M1110.4 88.36V83.94L1141.94 44.5H1148.74L1117.46 83.94L1114.14 82.92H1162V88.36H1110.4ZM1143.98 104V88.36L1144.15 82.92V69.15H1150.1V104H1143.98Z" fill="white"/>
  <path d="M409.315 104V99.665L434.05 75.44C436.317 73.23 438.017 71.3033 439.15 69.66C440.283 67.96 441.048 66.3733 441.445 64.9C441.842 63.4267 442.04 62.0383 442.04 60.735C442.04 57.2783 440.85 54.5583 438.47 52.575C436.147 50.5917 432.69 49.6 428.1 49.6C424.587 49.6 421.47 50.1383 418.75 51.215C416.087 52.2917 413.792 53.9633 411.865 56.23L407.53 52.49C409.853 49.77 412.828 47.6733 416.455 46.2C420.082 44.7267 424.133 43.99 428.61 43.99C432.633 43.99 436.118 44.6417 439.065 45.945C442.012 47.1917 444.278 49.0333 445.865 51.47C447.508 53.9067 448.33 56.7683 448.33 60.055C448.33 61.9817 448.047 63.88 447.48 65.75C446.97 67.62 446.007 69.6033 444.59 71.7C443.23 73.74 441.218 76.0633 438.555 78.67L415.86 100.94L414.16 98.56H451.05V104H409.315Z" fill="white"/>
</svg>
